<?xml version="1.0" encoding="UTF-8" standalone="no"?>
<!-- Created with Inkscape (http://www.inkscape.org/) -->

<svg
   xmlns:dc="http://purl.org/dc/elements/1.1/"
   xmlns:cc="http://creativecommons.org/ns#"
   xmlns:rdf="http://www.w3.org/1999/02/22-rdf-syntax-ns#"
   xmlns:svg="http://www.w3.org/2000/svg"
   xmlns="http://www.w3.org/2000/svg"
   xmlns:sodipodi="http://sodipodi.sourceforge.net/DTD/sodipodi-0.dtd"
   xmlns:inkscape="http://www.inkscape.org/namespaces/inkscape"
   width="1010.4"
   height="1010.4002"
   id="svg2"
   sodipodi:version="0.32"
   inkscape:version="0.48.4 r9939"
   version="1.0"
   sodipodi:docname="Ajax.svg"
   inkscape:output_extension="org.inkscape.output.svg.inkscape">
  <defs
     id="defs4">
    <inkscape:perspective
       sodipodi:type="inkscape:persp3d"
       inkscape:vp_x="0 : 300.5 : 1"
       inkscape:vp_y="0 : 1000 : 0"
       inkscape:vp_z="601 : 300.5 : 1"
       inkscape:persp3d-origin="300.5 : 200.33333 : 1"
       id="perspective3380" />
    <inkscape:perspective
       id="perspective3990"
       inkscape:persp3d-origin="375 : 250 : 1"
       inkscape:vp_z="750 : 375 : 1"
       inkscape:vp_y="0 : 1000 : 0"
       inkscape:vp_x="0 : 375 : 1"
       sodipodi:type="inkscape:persp3d" />
  </defs>
  <sodipodi:namedview
     id="base"
     pagecolor="#ffffff"
     bordercolor="#666666"
     borderopacity="1.0"
     gridtolerance="10000"
     guidetolerance="10"
     objecttolerance="10"
     inkscape:pageopacity="0.0"
     inkscape:pageshadow="2"
     inkscape:zoom="0.31248868"
     inkscape:cx="823.20583"
     inkscape:cy="482.07669"
     inkscape:document-units="px"
     inkscape:current-layer="layer1"
     width="601px"
     height="601px"
     inkscape:window-width="1280"
     inkscape:window-height="1001"
     inkscape:window-x="-8"
     inkscape:window-y="-8"
     showgrid="false"
     fit-margin-top="0.2"
     fit-margin-left="0.2"
     fit-margin-right="0.2"
     fit-margin-bottom="0.2"
     inkscape:window-maximized="1"
     showguides="true"
     inkscape:guide-bbox="true" />
  <metadata
     id="metadata7">
    <rdf:RDF>
      <cc:Work
         rdf:about="">
        <dc:format>image/svg+xml</dc:format>
        <dc:type
           rdf:resource="http://purl.org/dc/dcmitype/StillImage" />
        <dc:title></dc:title>
      </cc:Work>
    </rdf:RDF>
  </metadata>
  <g
     inkscape:label="Layer 1"
     inkscape:groupmode="layer"
     id="layer1"
     transform="translate(1515.529,3241.075)">
    <rect
       style="color:#000000;fill:#000000;fill-opacity:1;fill-rule:nonzero;stroke:none;stroke-width:0.8735441;marker:none;visibility:visible;display:inline;overflow:visible"
       id="rect3653"
       width="0"
       height="27.202072"
       x="578.73834"
       y="298.1684"
       rx="249.48199"
       ry="27.202072" />
    <path
       inkscape:connector-curvature="0"
       id="path3940"
       d="m -1219.5067,-2230.8749 -295.8223,-295.8221 10e-5,-418.3556 295.822,-295.8224 418.3557,3e-4 295.8222,295.8221 -2e-4,418.3558 -295.822,295.822 z"
       style="fill:#000000;fill-opacity:1;stroke:none" />
    <path
       inkscape:connector-curvature="0"
       id="path3942"
       d="m -1217.4357,-2235.875 -292.8933,-292.8932 10e-5,-414.2135 292.8931,-292.8935 414.2135,3e-4 292.8933,292.8932 -2e-4,414.2136 -292.8931,292.8932 z"
       style="fill:#ffffff;fill-opacity:1;stroke:none" />
    <path
       style="fill:#e41408;fill-opacity:1;stroke:none"
       d="m -814.82009,-3207.875 276.49109,276.491 -7e-5,391.0178 -276.49098,276.4913 -391.01755,-4e-4 -276.4914,-276.4908 3e-4,-391.0179 276.491,-276.4911 z"
       id="path3944"
       inkscape:connector-curvature="0" />
    <path
       d="m -609.20791,-2849.4438 c 0.3764,8.5248 0.1432,17.1732 0.1303,25.9693 0,8.6211 0.2736,17.2752 0.2736,25.8216 0,8.6431 -0.7767,52.5339 -1.3698,56.5496 -2.21078,15.0934 -10.36164,25.7651 -18.77869,35.2132 -2.12988,2.3948 -4.15707,5.0863 -6.57346,6.9275 -2.50088,1.9085 -5.45907,3.5439 -8.49795,5.0354 -12.00313,5.8458 -26.98264,8.6668 -44.81754,9.3734 -8.64655,0.3442 -18.1084,0.097 -27.00654,0.142 -4.00848,0.016 -8.99005,0.1129 -12.74503,0.8085 -3.67228,0.692 -7.78906,2.1635 -8.08105,5.3013 -0.084,0.8997 0,14.8294 0,18.9015 0,25.4702 -0.5876,89.8906 -0.4168,91.8847 0.4333,4.9898 -1.56079,11.4476 -5.33967,12.5056 -0.1707,0.051 -0.2845,0.1148 -0.549,0.1366 -3.80268,0.2768 -52.29819,0.6902 -54.00028,0.5445 -0.1983,-3.2744 1.40469,-246.6091 1.78288,-250.2568 0.1763,-1.7792 0.685,-76.101 0.685,-94.3341 0,-3.4092 -0.6115,-8.7961 0.2735,-10.608 0.93649,-1.9268 9.56474,-1.9268 10.96384,-1.761 1.81599,0.1985 18.94949,-1.6372 25.62585,-1.6372 22.74667,0 45.01224,-0.5427 67.56971,-0.5427 9.22314,0 18.29759,-0.9179 26.18395,0.8213 32.30581,7.0859 53.00879,25.3919 54.68718,63.2038 z m -58.69556,18.6902 c 0.1029,-1.7829 0.5179,-3.8517 0.2718,-5.0299 -0.2167,-1.0599 0.1781,-6.7564 0,-8.8361 -0.055,-0.7466 -0.964,-2.3219 -1.50569,-3.3982 -3.81008,-7.6524 -22.94127,-13.6839 -25.35776,-14.1374 -3.38588,-0.6392 -6.29256,-0.6793 -10.55244,-0.6793 -2.40538,0 -4.96327,-0.2385 -6.99036,0 -1.99968,0.2368 -23.82086,-0.056 -26.04265,3.3983 -0.68489,1.0708 -1.22289,3.1486 -1.23389,5.0298 -0.035,6.2083 -0.549,82.0708 -0.549,89.8524 0,5.4652 0.1377,11.5878 0.1377,17.399 0,2.067 0.4113,5.4379 0.4113,5.4379 0,0 32.38111,-0.4079 35.6348,-0.4079 13.96781,0 22.84216,-4.8315 30.56512,-11.2818 0.84469,-0.703 3.62098,-8.2061 3.70178,-10.7392 0.01,-0.1184 0.01,-0.2368 0.011,-0.3625 0.4113,-13.4271 1.23029,-61.5939 1.49839,-66.2451 z"
       id="path12"
       style="fill:#ffffff;stroke:none"
       inkscape:connector-curvature="0" />
    <path
       d="m -838.95318,-2842.7147 c 0.64999,13.6384 0.1359,28.8174 0.1359,43.9072 0,21.5967 0,44.3317 0,66.1996 0,3.6423 0.45719,7.5559 -0.1359,10.8758 -0.5545,3.116 0.1359,16.9128 0.1359,21.4783 0,13.9499 0,30.6823 0,44.45 0,21.1032 -1.93529,36.8668 -7.67526,51.5195 -6.89856,17.6212 -18.77309,30.777 -34.6763,39.5567 -3.17108,1.7501 -28.30853,6.3556 -36.59519,8.0201 -1.43409,0.2878 -18.28659,0.4025 -21.38237,0.2714 -29.60483,-1.242 -57.11267,-4.1977 -75.794,-16.177 -7.6074,-4.8825 -18.5363,-21.513 -19.0505,-21.8863 -1.5662,-1.1619 -2.7414,-3.5511 -3.564,-5.5744 -1.1587,-2.8774 -2.0272,-5.997 -2.8772,-9.3788 -1.5755,-6.3156 -3.4264,-13.2651 -3.4264,-20.9339 0,-64.7099 0,-130.2921 0,-194.931 0,-8.5356 -0.4003,-16.7598 0.2736,-24.0607 2.0437,-22.0265 11.478,-37.1054 24.8068,-48.5292 8.8798,-7.6124 19.68584,-13.6603 31.25008,-18.0783 25.42565,-0.2495 52.0485,-0.1366 77.98825,-0.1366 3.38588,0 6.56066,0.8832 9.45634,1.6317 34.4322,8.8725 59.15456,30.2707 61.13025,71.7759 z m -56.60588,10.6026 c 0.01,-11.6898 -2.92318,-18.8906 -10.27894,-23.3815 -7.46965,-4.5709 -17.0362,-4.4853 -29.33313,-4.4853 -5.66456,0 -11.21533,0 -16.8579,0 -5.51777,0 -11.20633,-0.4243 -16.9958,0 -8.13795,0.5955 -13.52902,5.0863 -16.17311,11.8263 -2.53568,6.4741 -2.19238,15.587 -2.19238,25.1479 0,50.4214 -2.20529,163.9939 -2.19239,165.3069 0.035,2.7809 0.1652,22.1522 0,24.3211 4.47107,11.6461 13.13972,18.6227 29.33123,18.6227 15.29351,0 32.67121,0 48.24382,0 6.29446,-3.1431 10.96574,-7.8835 14.11672,-14.1373 0,-3.3708 0,-6.8874 0,-10.3312 0,-3.4255 2.33188,-148.7729 2.33188,-192.8896 z"
       id="path14"
       style="fill:#ffffff;stroke:none"
       inkscape:connector-curvature="0" />
    <path
       d="m -1059.0713,-2913.265 c 0,15.8584 0,31.7185 0,47.5768 -20.422,0 -40.8441,0 -61.2643,0 -0.3195,102.806 -0.046,206.2184 -0.1377,309.2521 -17.1334,0 -34.265,0 -51.3985,0 0,-103.0883 0,-206.1638 0,-309.2521 -20.1007,0 -40.2032,0 -60.3057,0 0,-15.7235 0,-31.4471 0,-47.1688 -0.011,-0.1931 -0.024,-0.3843 0.1377,-0.408 57.6561,0 115.3178,0 172.9685,0 z"
       id="path16"
       style="fill:#ffffff;stroke:none"
       inkscape:connector-curvature="0" />
    <path
       d="m -1358.2205,-2667.9306 c 0,0 -0.029,10.2346 -0.029,12.4 0,6.474 -0.617,13.1466 1.3716,18.2148 1.7756,4.5146 5.0477,7.7871 9.3204,10.3312 1.3368,0.794 2.8498,1.8303 4.249,2.1745 1.6103,0.397 3.9754,0.1365 6.0301,0.1365 2.4843,0 5.5397,0.4517 7.4016,-0.2713 3.0719,-1.1947 6.2706,-3.8189 8.9092,-5.8459 5.7233,-4.3888 10.0806,-9.0636 13.2958,-16.177 1.4965,-3.3071 2.9526,-7.6923 2.6037,-12.0995 -0.097,-1.2784 0.01,-10.5898 0,-11.9611 -0.01,-3.0121 -1.895,-6.791 -3.5622,-9.652 -4.7282,-8.1276 -11.8158,-15.1226 -18.092,-21.3416 -8.9366,-8.8635 -18.6464,-16.7598 -28.0972,-24.4687 -9.629,-7.8564 -19.8106,-15.2919 -29.8785,-22.7021 -2.33,-1.7155 -4.2029,-4.6839 -6.0299,-7.2043 -5.3966,-7.4649 -10.7436,-16.1133 -14.1166,-25.148 -2.4219,-6.5013 -4.249,-13.5928 -4.249,-22.021 0,-8.388 0,-17.4791 0,-26.235 0,-17.3936 4.2729,-32.1483 9.4564,-42.9549 9.8401,-20.4966 27.2233,-33.8182 50.8494,-41.1883 3.3749,-1.0544 7.0124,-2.5149 10.279,-2.8537 3.7569,-0.3915 9.5206,-0.7029 14.8474,-0.6465 5.3562,0.056 11.2502,1.5862 16.1272,2.9576 18.3949,5.1774 32.0781,20.1234 42.6252,35.7504 7.5338,11.1471 13.4316,25.6978 13.4316,45.131 0,3.0978 0,6.4232 0,9.7886 0,3.0922 0,9.6501 0,9.6501 l -5.8941,5.5745 -36.2573,-0.499 c 0,0 -7.6477,0.3624 -9.5555,-8.3426 -1.0613,-4.8715 -1.5754,-15.6671 -2.0216,-20.2491 -0.8686,-9.0564 -5.2314,-15.1572 -13.1581,-17.5356 -3.9111,-1.1783 -8.5824,-1.2238 -14.1167,-1.2238 -0.8042,0 -2.6091,1.1619 -3.6998,1.7665 -12.0546,6.7073 -21.118,17.0603 -21.9296,34.2553 -0.2864,6.1118 1.7977,10.9487 4.3867,15.6325 4.7501,8.5867 11.3421,16.2227 17.8183,23.1083 13.4611,14.3067 27.8053,26.4172 42.8987,38.8773 7.6643,6.3212 14.2653,12.4838 20.2844,20.5259 11.656,15.5651 18.8521,35.1896 20.8333,60.627 3.8377,49.152 -15.9325,78.4011 -46.3251,95.6982 -4.3811,2.4931 -8.9771,5.0371 -13.7053,6.6616 -2.5688,0.8832 -5.8702,1.0763 -8.7714,1.4951 -3.0499,0.4407 -6.1567,0.8887 -9.0451,1.222 -6.0758,0.7102 -13.0956,-0.5828 -18.5032,-1.7665 -30.3466,-6.6434 -47.1422,-28.0889 -58.1133,-54.2385 -1.0044,-2.4056 -2.433,-4.9388 -2.8773,-7.2043 -0.6959,-3.5967 -0.7015,-7.6069 -1.0962,-11.4185 -0.3765,-3.7096 -0.8337,-7.4137 -1.234,-11.1471 -0.571,-5.3814 -0.1358,-12.4382 -0.1358,-18.6246 0,-2.1526 -0.3434,-4.6621 0,-6.1153 0.2442,-1.0362 1.6103,-1.8684 2.6037,-2.8537 0.9254,-0.9123 1.9482,-2.4476 3.2904,-2.4476 10.7766,0 31.1766,-0.01 42.4489,0 1.2615,0 5.1322,4.4582 5.1322,4.4582 z"
       id="path18"
       style="fill:#ffffff;stroke:none"
       inkscape:connector-curvature="0" />
  </g>
</svg>
